<?xml version="1.0" encoding="UTF-8"?><svg id="Layer_1" xmlns="http://www.w3.org/2000/svg" xmlns:xlink="http://www.w3.org/1999/xlink" viewBox="0 0 1280 800"><defs><style>.cls-1{fill:none;}.cls-1,.cls-2,.cls-3,.cls-4,.cls-5,.cls-6,.cls-7,.cls-8,.cls-9{stroke-width:0px;}.cls-2{fill:url(#linear-gradient);}.cls-3{fill:#ffb19a;}.cls-4{fill:url(#linear-gradient-4);}.cls-5{fill:url(#linear-gradient-2);}.cls-6{fill:url(#linear-gradient-3);}.cls-7{fill:url(#linear-gradient-5);}.cls-8{fill:url(#linear-gradient-6);}.cls-9{fill:#ce99ce;}</style><linearGradient id="linear-gradient" x1="145.93" y1="201.83" x2="663.44" y2="719.34" gradientUnits="userSpaceOnUse"><stop offset="0" stop-color="#ff8b89"/><stop offset=".3" stop-color="#fcee21"/><stop offset=".61" stop-color="#3ec61a"/><stop offset="1" stop-color="#317efe"/></linearGradient><linearGradient id="linear-gradient-2" x1="69.44" y1="278.32" x2="586.95" y2="795.83" xlink:href="#linear-gradient"/><linearGradient id="linear-gradient-3" x1="90.06" y1="257.7" x2="607.57" y2="775.21" xlink:href="#linear-gradient"/><linearGradient id="linear-gradient-4" x1="431.36" y1="521.09" x2="1156.86" y2="521.09" xlink:href="#linear-gradient"/><linearGradient id="linear-gradient-5" x1="431.36" y1="333.11" x2="1156.86" y2="333.11" xlink:href="#linear-gradient"/><linearGradient id="linear-gradient-6" x1="688.27" y1="221.23" x2="978.68" y2="724.25" gradientUnits="userSpaceOnUse"><stop offset="0" stop-color="#fcee21"/><stop offset=".24" stop-color="#3ec61a"/><stop offset="1" stop-color="#317efe"/></linearGradient></defs><path class="cls-1" d="M533.12,321.65c1.38,0,2.7-.2,3.98-.51-1.28.3-2.6.51-3.98.51h0Z"/><path class="cls-1" d="M204.48,599.44c-.82,0-1.61.07-2.39.2.78-.13,1.57-.2,2.39-.2h0Z"/><path class="cls-1" d="M512.45,222.25c-1.31,5.25-4.4,9.99-8.7,13.35-.42.33-.86.61-1.3.91l21.72,45.09c.24-.09.47-.21.72-.3,2.77-.99,5.53-1.49,8.23-1.49,6.78,0,13.33,2.88,17.99,7.91.17.19.33.4.49.6l52.59-39.22c-2.73-3.32-4.57-7.25-5.28-11.43-.12-.71-.22-1.53-.3-2.41l-86.04-13.64c-.05.21-.07.42-.12.63Z"/><path class="cls-1" d="M204.48,633.96h0c-3.57,0-6.9-1.09-9.65-2.95,2.75,1.86,6.08,2.95,9.65,2.95Z"/><path class="cls-1" d="M140.99,459.06c1.17,0,2.3-.17,3.4-.4-1.1.23-2.23.4-3.4.4Z"/><path class="cls-1" d="M213.4,631.41c-1.73,1.07-3.66,1.85-5.73,2.24,2.07-.4,3.99-1.17,5.73-2.24Z"/><path class="cls-1" d="M151.06,427.84h0c-1.35-.98-2.85-1.73-4.46-2.28h0c1.61.56,3.11,1.31,4.46,2.28Z"/><path class="cls-1" d="M151.31,455.55c2.64-1.98,4.68-4.69,5.83-7.86h0c-1.16,3.16-3.2,5.88-5.83,7.86Z"/><path class="cls-1" d="M429.38,584.83c-.15,1.28-.44,2.51-.85,3.68.41-1.17.7-2.41.85-3.68Z"/><path class="cls-1" d="M540.54,319.91h0s0,0,0,0c1.79-.86,3.44-1.97,4.83-3.37h0c-1.38,1.4-3.03,2.51-4.83,3.37Z"/><path class="cls-1" d="M158.01,444.14h0c.11-.77.24-1.54.24-2.35,0,.8-.13,1.57-.24,2.35h0Z"/><path class="cls-1" d="M155.63,432.76c-.55-.88-1.17-1.7-1.86-2.46h0s0,0,0,0c.69.76,1.31,1.59,1.86,2.46Z"/><path class="cls-1" d="M318.72,469.85c-.74-.59-1.52-1.12-2.35-1.59.82.47,1.61,1,2.35,1.59h0Z"/><path class="cls-1" d="M545.75,292.7c-3.15-3.4-7.62-5.57-12.63-5.57h0c5.01,0,9.48,2.16,12.63,5.57h0Z"/><path class="cls-1" d="M329.58,139.9c-1.29,1.25-2.78,2.29-4.41,3.09,1.63-.8,3.12-1.85,4.41-3.09Z"/><path class="cls-1" d="M332.82,135.61c-.85,1.59-1.95,3.04-3.24,4.28,1.29-1.25,2.39-2.69,3.24-4.28Z"/><path class="cls-1" d="M493.32,192.2c11.54,2.22,19.92,12.36,19.92,24.11,0,.37-.03.74-.07,1.11,0,.2-.04.4-.06.59l85.58,13.57c1.03-12.72,11.59-22.58,24.4-22.58,5.13,0,10.06,1.61,14.28,4.64l25.86-37.06c-.18-.15-.38-.27-.56-.43-5.53-4.71-8.69-11.5-8.69-18.65,0-1.71.2-3.48.59-5.26.08-.36.2-.72.3-1.08l-131.89-51.03c-1.4,11.91-11.2,21.12-23.44,21.58-.31.03-.61.05-.93.05-.07,0-.14,0-.21-.01l-5.84,70.34c.26.04.51.06.77.11Z"/><path class="cls-1" d="M334.59,130.42c-.31,1.85-.92,3.59-1.77,5.19.85-1.59,1.46-3.34,1.77-5.19Z"/><path class="cls-1" d="M334.83,127.58c0-.56-.11-1.09-.16-1.64h0c.05.55.16,1.08.16,1.64Z"/><path class="cls-1" d="M306.61,140.82c.89.74,1.85,1.38,2.87,1.93-1.03-.55-1.98-1.19-2.87-1.93h0Z"/><path class="cls-1" d="M207.25,599.66c1.8.3,3.51.88,5.07,1.69-1.57-.81-3.27-1.4-5.07-1.69Z"/><path class="cls-1" d="M488.67,233.57h0c2.69,0,5.2-.67,7.47-1.76h0c-2.27,1.1-4.78,1.76-7.47,1.76Z"/><path class="cls-1" d="M221.43,613.68c-.14-.81-.34-1.6-.6-2.36.25.76.45,1.55.6,2.36h0Z"/><path class="cls-1" d="M218.33,626.9h0c1.99-2.7,3.2-5.97,3.34-9.55-.14,3.58-1.35,6.85-3.34,9.55h0Z"/><path class="cls-1" d="M501.33,227.94c1.92-2.08,3.33-4.62,4.03-7.46h0c-.71,2.84-2.12,5.38-4.03,7.46Z"/><path class="cls-1" d="M214.56,602.74c-.71-.51-1.46-.98-2.24-1.39.78.41,1.53.87,2.24,1.39h0Z"/><path class="cls-1" d="M505.93,216.31c0,.19-.05.37-.06.56h0c0-.19.06-.36.06-.56,0-8.41-6.03-15.4-13.99-16.93h0c7.97,1.53,13.99,8.52,13.99,16.93Z"/><path class="cls-1" d="M634.28,246.61h0s0,0,0,0c2.76-2.37,4.79-5.57,5.63-9.24-.84,3.66-2.87,6.86-5.63,9.24Z"/><path class="cls-1" d="M429.28,580.42c-.14-.8-.33-1.59-.55-2.36h0c.23.77.42,1.56.55,2.36Z"/><path class="cls-1" d="M692.7,578.11c-1.44-2.07-3.35-3.76-5.53-5.04,0,0,0,0,0,0h0c2.19,1.27,4.09,2.97,5.53,5.04Z"/><path class="cls-1" d="M683.8,571.59c-1.67-.54-3.42-.91-5.27-.91h0c1.85,0,3.6.37,5.27.91h0Z"/><path class="cls-1" d="M678.53,605.2c2.74,0,5.29-.7,7.59-1.83-2.3,1.14-4.85,1.83-7.59,1.83h0Z"/><path class="cls-1" d="M499,114.42h0c8.12-.19,14.85-5.97,16.47-13.65-1.62,7.68-8.35,13.46-16.47,13.65Z"/><path class="cls-1" d="M515.37,93.27h0s0,0,0,0c-1.78-7.63-8.59-13.33-16.77-13.33h0c8.18,0,14.99,5.7,16.77,13.33Z"/><path class="cls-1" d="M550.38,304.39c0,3.32-.98,6.4-2.61,9.03h0c1.63-2.63,2.61-5.71,2.61-9.03s-.93-6.18-2.46-8.76h0s0,0,0,0c1.53,2.58,2.46,5.55,2.46,8.76Z"/><path class="cls-1" d="M406.66,566.57c-1.74.61-3.36,1.5-4.81,2.6h0c1.45-1.1,3.07-1.99,4.81-2.6Z"/><path class="cls-1" d="M412.23,565.62h0c.82,0,1.62.06,2.41.17-.79-.11-1.59-.17-2.41-.17Z"/><path class="cls-1" d="M412.23,600.15c.73,0,1.46-.05,2.16-.15-.71.1-1.43.15-2.16.15h0Z"/><path class="cls-1" d="M695.79,157.5c0,5.62-2.73,10.57-6.89,13.72h0s0,0,0,0c4.16-3.15,6.89-8.1,6.89-13.72,0-9.53-7.73-17.26-17.26-17.26h0c9.53,0,17.26,7.73,17.26,17.26Z"/><path class="cls-1" d="M695.79,587.94c0,5.47-2.59,10.29-6.56,13.45h0s0,0,0,0c3.97-3.16,6.56-7.98,6.56-13.45,0-2.35-.48-4.58-1.33-6.63h0s0,0,0,0c.85,2.04,1.33,4.28,1.33,6.63Z"/><path class="cls-1" d="M395.32,586.33c.25,1.21.62,2.37,1.1,3.46-.49-1.1-.86-2.26-1.1-3.46h0Z"/><path class="cls-1" d="M399.38,594.21c1.18,1.32,2.5,2.53,4.04,3.45h0c-1.54-.92-2.86-2.12-4.04-3.45Z"/><path class="cls-1" d="M684.04,173.78h0c.59-.2,1.17-.4,1.73-.66h0c-.56.26-1.14.46-1.73.66Z"/><path class="cls-1" d="M308.01,500.56c1.07,0,2.12-.1,3.13-.29-1.01.19-2.06.29-3.13.29h0Z"/><path class="cls-1" d="M311.15,500.26c3.04-.58,5.79-1.98,8.05-3.92h0c-2.26,1.94-5.01,3.34-8.05,3.92Z"/><path class="cls-1" d="M633.19,219.63c-2.85-2.07-6.32-3.32-10.1-3.32,3.78,0,7.26,1.25,10.1,3.32h0Z"/><path class="cls-1" d="M325,480.27c-.54-2.94-1.85-5.6-3.67-7.83h0s0,0,0,0c1.82,2.23,3.13,4.89,3.67,7.83Z"/><path class="cls-1" d="M324.97,486.3h0c.17-.98.3-1.98.3-3.01s-.09-2.04-.27-3.02c.18.98.27,1.99.27,3.02s-.13,2.03-.3,3.01Z"/><path class="cls-1" d="M322.34,492.76c.63-.93,1.21-1.89,1.64-2.94h0c-.43,1.05-1.01,2.02-1.64,2.94Z"/><path class="cls-1" d="M308.01,466.03h0c1.02,0,2.01.09,2.97.27-.96-.17-1.96-.27-2.97-.27Z"/><path class="cls-1" d="M678.53,174.77c.66,0,1.28-.12,1.92-.19-.64.07-1.26.19-1.92.19h0Z"/><path class="cls-1" d="M640.04,230.35c-.61-3.13-2.08-5.94-4.13-8.23h0s0,0,0,0c2.05,2.29,3.52,5.11,4.13,8.23Z"/><path class="cls-1" d="M283.45,483.29c0-1.19.14-2.2.26-3.01l.05-.33c.04-.26.1-.51.15-.77l-119.66-29.73c-.08.25-.14.51-.23.75-2.19,6-6.57,10.85-12.32,13.64-.24.12-.48.2-.73.31l46.38,129.13c.16-.05.32-.12.48-.16,2.37-.67,4.55-1,6.66-1,5.16,0,10.13,1.62,14.37,4.7.07.05.14.12.21.17l73.94-94.35c-6.07-4.71-9.56-11.77-9.56-19.36Z"/><path class="cls-1" d="M426.93,591.84c-.65,1.04-1.4,2.01-2.25,2.89.85-.88,1.6-1.85,2.25-2.89Z"/><path class="cls-1" d="M623.09,250.83c2.97,0,5.71-.82,8.15-2.13h0c-2.44,1.32-5.19,2.13-8.15,2.13Z"/><path class="cls-1" d="M355.26,746.24c3.33-1.08,6.21-3.16,8.31-5.88-2.1,2.72-4.98,4.8-8.31,5.88Z"/><path class="cls-1" d="M371.08,717.39c2.26,3.83,3.45,8.12,3.45,12.42,0,1.2-.14,2.21-.26,3.05l144.21,12.08c-.02-.26-.04-.52-.04-.83,0-3.7.87-7.34,2.58-10.81.43-.87.93-1.72,1.48-2.56l-51.02-58.1c-.05.05-.1.1-.16.14-4.5,3.73-9.9,5.7-15.61,5.7-7.71,0-14.84-3.57-19.55-9.79-.02-.03-.04-.06-.06-.08l-65.44,48.16c.13.21.28.41.41.62Z"/><path class="cls-1" d="M501.09,370.65c-5.95,0-11.98,2.56-18.04,7.71-6.1,5.08-11.76,11.94-17.02,20.6-5.22,8.62-9.5,18.12-12.75,28.49-3.25,10.34-4.86,20.75-4.86,31.27,0,9.61,1.61,17.93,4.86,24.87,3.25,6.94,7.16,10.41,11.65,10.41,11.07,0,21.59-5.04,31.49-15.09,9.93-10.08,18.85-23.34,26.81-39.85,1.68-3.4,3.36-6.98,5.04-10.78,1.72-3.84,3.29-7.71,4.75-11.73-6.25-16.69-11.43-28.53-15.52-35.5-4.13-6.94-9.61-10.41-16.4-10.41ZM482.58,480.96l-24.51-43.12c.38-1.7.84-3.39,1.32-5.07l26.17,46.04c-.99.78-1.99,1.49-2.98,2.15Z"/><path class="cls-1" d="M543.01,761.38h0c9.53,0,17.26-7.73,17.26-17.26,0-1.24-.14-2.45-.39-3.62.25,1.17.39,2.37.39,3.62,0,9.53-7.73,17.26-17.26,17.26Z"/><path class="cls-1" d="M361.91,717.51c-1.15-1.11-2.42-2.09-3.85-2.85h0s0,0,0,0c1.43.76,2.7,1.74,3.85,2.85Z"/><path class="cls-1" d="M349.96,712.55c1.65,0,3.21.3,4.71.73-1.51-.43-3.07-.73-4.71-.73Z"/><path class="cls-1" d="M791.6,328.92h0c8.18-.18,14.97-6.03,16.53-13.79-1.57,7.76-8.35,13.61-16.53,13.79Z"/><path class="cls-1" d="M649.94,390.7c-7.63,0-15.23,4.24-22.79,12.64-7.6,8.4-11.36,16.95-11.36,25.68s9.64,12.93,28.97,12.93c14.83,0,26.12-.55,33.79-1.64,0-8.77-2.78-18.85-8.33-30.28-6.47-12.86-13.22-19.32-20.27-19.32Z"/><path class="cls-1" d="M474.44,644.45c-11.23,0-22.48.18-33.73.55,10.3-.33,21.05-.52,32.03-.54h1.71Z"/><path class="cls-1" d="M472.97,653.92c0,4.03-1.44,7.68-3.75,10.62h0s0,0,0,0c2.31-2.94,3.75-6.59,3.75-10.62Z"/><path class="cls-1" d="M930.22,346.19c5.27,3.5,8.77,12.11,10.49,25.8,1.76,13.71,2.66,32.62,2.66,56.71s-.18,39.59-.5,46.58c49.54.72,87.86,2.3,114.94,4.74l.5-90.64c0-23.52-1.76-37.92-5.25-43.2h-122.84Z"/><path class="cls-1" d="M304.88,659.91c-16.59,1.73-32.33,6.36-47.23,13.95-2.5,1.24-4.01,2.48-4.53,3.74-.54,1.29-.27,2.55.79,3.81,3.97,4.78,9.16,6.72,15.6,5.82,6.42-.92,12.72-3.13,18.9-6.61,6.18-3.5,11.03-7.15,14.59-10.93.18-.2.74-.86,1.65-2.01.95-1.15,1.8-2.37,2.52-3.67.76-1.26,1.01-2.34.72-3.23-.29-.92-1.29-1.2-3.02-.86ZM278.1,677.4l-3.72-2.86c1.36-.5,2.71-1.02,4.08-1.47l3.47,2.66c-1.27.62-2.55,1.17-3.83,1.67Z"/><path class="cls-1" d="M805.53,302.04c-3.1-4.59-8.35-7.61-14.31-7.61,5.96,0,11.21,3.02,14.31,7.61Z"/><path class="cls-1" d="M558.69,736.99c-.6-1.33-1.4-2.53-2.3-3.66h0s0,0,0,0c.91,1.12,1.7,2.33,2.3,3.66Z"/><path class="cls-1" d="M455.71,671.18c4.18,0,7.96-1.55,10.95-4.02h0c-2.99,2.47-6.77,4.02-10.95,4.02Z"/><path class="cls-1" d="M553.8,730.74h0c-2.95-2.39-6.65-3.87-10.74-3.89h0c4.09.01,7.79,1.5,10.74,3.89Z"/><path class="cls-1" d="M439.61,652.33c-.33.01-.67.03-1.01.05-.05.52-.16,1.01-.16,1.54,0-.53.11-1.03.16-1.54.33-.01.67-.03,1.01-.05Z"/><path class="cls-1" d="M339.86,715.87c-.94.69-1.82,1.48-2.61,2.34h0c.79-.86,1.66-1.65,2.61-2.34Z"/><path class="cls-1" d="M346.78,260.26c-1.15.39-2.35.67-3.59.82,1.24-.14,2.44-.42,3.59-.82Z"/><path class="cls-1" d="M356.2,235.37c-.56-.99-1.23-1.91-1.97-2.76h0s0,0,0,0c.75.85,1.41,1.78,1.97,2.76Z"/><path class="cls-1" d="M358.56,243.93c0-.63-.12-1.24-.19-1.85h0c.07.62.19,1.22.19,1.85Z"/><path class="cls-1" d="M351.55,230.11c-2.87-2.14-6.4-3.45-10.25-3.45,3.86,0,7.38,1.31,10.25,3.45h0Z"/><path class="cls-1" d="M325.66,251.2c.35.74.74,1.45,1.18,2.12h0s0,0,0,0c-.44-.68-.84-1.39-1.18-2.12Z"/><path class="cls-3" d="M477.76,110.03l-37.05,35.25c.14,1.56.25,3.12.38,4.68l38.85-36.96c-.13-.15-.29-.27-.41-.43-.65-.81-1.23-1.66-1.77-2.53Z"/><path class="cls-9" d="M247.07,343.02c-.05.24-.14.46-.2.7l140.83,9.89c.13-1.21.28-2.42.41-3.63l-140.84-9.89c.05.95,0,1.94-.2,2.94Z"/><path class="cls-3" d="M390.69,323.99c.18-1.95.37-3.89.54-5.84l-35.64-54.34c-1.01.73-2.06,1.36-3.12,1.91l38.21,58.27Z"/><path class="cls-3" d="M354.23,232.6h0c-.81-.92-1.69-1.76-2.68-2.49h0c.98.73,1.87,1.57,2.68,2.49Z"/><path class="cls-3" d="M359.52,227.57l37.4-35.58c-.03-1.65-.04-3.31-.09-4.96l-39.95,38.01c.92.77,1.81,1.6,2.64,2.52Z"/><path class="cls-3" d="M433.85,619.98c1.43-.01,2.85-.02,4.28-.03l-10.94-17.72c-.96.74-1.97,1.43-3.04,2.03l9.71,15.73Z"/><path class="cls-9" d="M566.48,737l140.38-74.45c-2.04-.3-4.07-.61-6.11-.89l-135.61,71.92c.06.13.15.25.21.39.47,1.02.83,2.03,1.14,3.04Z"/><path class="cls-3" d="M558.69,736.99c.51,1.12.92,2.28,1.18,3.51-.26-1.23-.68-2.39-1.18-3.51Z"/><path class="cls-3" d="M305.76,139.95c.29.28.54.61.85.87h0c-.31-.26-.56-.59-.85-.87Z"/><path class="cls-3" d="M298.83,143.31l-89.32,87.17c-.63,2.25-1.18,4.54-1.76,6.82l93.63-91.37c-.92-.81-1.77-1.68-2.55-2.61Z"/><path class="cls-3" d="M274.38,674.54l3.72,2.86c1.28-.5,2.56-1.05,3.83-1.67l-3.47-2.66c-1.37.46-2.73.97-4.08,1.47Z"/><path class="cls-3" d="M793.65,382.91c-.37-.37-.77-.75-1.12-1.11-.93-.93-1.85-1.78-2.76-2.61l1.66,27.99c1.21-.14,2.41-.29,3.63-.42l-1.41-23.85Z"/><path class="cls-9" d="M523.15,97.84l-.02.13c-.02.73-.09,1.45-.17,2.16l131.89,51.03c.31-1.15.7-2.3,1.21-3.45l-132.96-51.45c.01.31.06.63.06.94v.65Z"/><path class="cls-3" d="M515.86,97.2c0,.06-.02.11-.02.17,0-.06.02-.11.02-.17,0-1.36-.19-2.66-.49-3.93h0c.3,1.27.49,2.57.49,3.93Z"/><path class="cls-3" d="M797.63,449.9c-1.21.13-2.43.25-3.63.39l2.49,41.94,3.89,3.9-2.74-46.24Z"/><path class="cls-3" d="M719.57,633.76c1.23.29,2.44.63,3.65.96l53.01-94.33-2.69-2.68-53.97,96.04Z"/><path class="cls-9" d="M774.11,294.19c.89-.88,1.81-1.7,2.77-2.39l-83.68-114.67c-1,.75-2.04,1.39-3.09,1.96l84,115.11Z"/><path class="cls-3" d="M685.77,173.13h0s0,0,0,0c1.12-.52,2.16-1.17,3.13-1.9h0c-.98.74-2.01,1.38-3.13,1.9Z"/><path class="cls-3" d="M435.73,105.24l38.31-7.85c0-.07-.01-.13-.01-.2,0-.61.06-1.2.15-1.89.04-.58.15-1.15.23-1.72l-39.37,8.06c.23,1.2.46,2.39.68,3.59Z"/><path class="cls-3" d="M150.96,464.16c-1.13.51-2.28.92-3.44,1.25l46.41,129.23c1.1-.53,2.24-.98,3.4-1.34l-46.38-129.13Z"/><path class="cls-9" d="M518.59,746c-.04-.27-.08-.64-.11-1.06l-144.21-12.08c0,.05-.02.13-.02.18l-.03.24c-.16,1.1-.4,2.16-.69,3.19l145.43,12.18c-.15-.81-.27-1.63-.34-2.45l-.03-.2Z"/><path class="cls-3" d="M334.66,125.94c-.12-1.24-.36-2.43-.73-3.58.37,1.15.61,2.34.73,3.58h0Z"/><path class="cls-3" d="M390.39,114.53c-.19-1.2-.4-2.4-.6-3.61l-48.7,9.97c.33,1.16.57,2.36.73,3.58l48.57-9.95Z"/><path class="cls-3" d="M314.63,700.84c-1.18.66-2.38,1.26-3.58,1.86l18.25,14.02c.66-1.05,1.38-2.04,2.17-2.94l-16.84-12.93Z"/><path class="cls-3" d="M337.26,718.21h0c-.41.45-.72.98-1.08,1.48.36-.49.67-1.03,1.08-1.48h0Z"/><path class="cls-3" d="M221.69,634.09l19.19,14.74c1.26-.58,2.54-1.14,3.83-1.67l-20.58-15.8c-.72.96-1.55,1.86-2.44,2.74Z"/><path class="cls-3" d="M218.33,626.9c-.73.99-1.57,1.88-2.49,2.69.92-.81,1.76-1.7,2.49-2.69h0Z"/><path class="cls-3" d="M146.6,425.55c-.76-.26-1.57-.39-2.38-.54.8.15,1.62.28,2.38.54h0Z"/><path class="cls-3" d="M171.86,315.89c-.91-1.72-1.76-3.47-2.54-5.24l-24.64,106.98c1.23.19,2.41.46,3.56.81l23.62-102.55Z"/><path class="cls-3" d="M505.37,220.48h0c.29-1.17.47-2.37.51-3.62h0c-.04,1.25-.22,2.45-.51,3.62Z"/><path class="cls-9" d="M512.58,221.63l86.04,13.64c-.05-.55-.1-1.1-.1-1.7,0-.47.04-.93.11-1.42.01-.19.05-.38.06-.57l-85.58-13.57c-.09,1.21-.26,2.41-.53,3.61Z"/><path class="cls-3" d="M637.36,213.64s.08.04.12.07c.93.67,1.81,1.47,2.67,2.31l26.08-37.38c-1.06-.62-2.07-1.3-3.01-2.06l-25.86,37.06Z"/><path class="cls-3" d="M633.19,219.63h0c1,.73,1.9,1.56,2.72,2.48h0c-.82-.92-1.72-1.76-2.72-2.48h0Z"/><path class="cls-3" d="M443,223.07c-.02,1.24-.05,2.48-.07,3.72l22.17-4c-.32-1.16-.56-2.36-.7-3.58l-21.39,3.86Z"/><path class="cls-3" d="M396.56,235.17c.05-1.24.08-2.49.12-3.73l-31.87,5.76c.33,1.15.58,2.35.74,3.58l31-5.6Z"/><path class="cls-3" d="M358.37,242.07c-.09-.82-.31-1.6-.51-2.38.2.78.42,1.56.51,2.38h0Z"/><path class="cls-3" d="M243.05,332.22c.14.1.28.21.42.32.6.49,1.06,1.07,1.53,1.64l78.8-73.05c-.83-.85-1.6-1.8-2.33-2.81l-79.2,73.42c.27.16.55.31.79.48Z"/><path class="cls-3" d="M326.85,253.32h0c.33.51.77.95,1.15,1.42-.38-.48-.81-.91-1.15-1.42Z"/><path class="cls-3" d="M498.6,114.46h0c.14,0,.26-.04.4-.04h0c-.14,0-.26.04-.4.04Z"/><path class="cls-3" d="M498.39,121.75c-1.18-.01-2.38-.13-3.64-.33l-5.84,70.34c1.19.01,2.39.13,3.64.34l5.84-70.34Z"/><path class="cls-3" d="M491.94,199.38c-1.06-.2-2.15-.33-3.27-.33h0c1.12,0,2.21.13,3.27.33h0Z"/><path class="cls-3" d="M458.07,437.84l24.51,43.12c1-.66,1.99-1.37,2.98-2.15l-26.17-46.04c-.47,1.69-.94,3.38-1.32,5.07Z"/><path class="cls-3" d="M631.24,248.7h0s0,0,0,0c1.09-.59,2.11-1.29,3.05-2.09h0c-.93.8-1.95,1.5-3.04,2.09Z"/><path class="cls-3" d="M636.32,254.14l97.45,104.27c.54-1.11,1.14-2.29,1.76-3.47l-96.27-103c-.08.07-.14.14-.22.21-.85.73-1.77,1.38-2.72,1.99Z"/><path class="cls-3" d="M637.86,532.95l-29.07-35.39c-.73,1.03-1.49,2.04-2.26,3l28.79,35.06c.84-.88,1.69-1.76,2.54-2.66Z"/><path class="cls-3" d="M738.63,349.16c.82-1.45,1.66-2.74,2.49-4.07l-54.77-164.38c-1.14.38-2.34.65-3.56.87l55.84,167.58Z"/><path class="cls-3" d="M680.45,174.57c1.24-.14,2.44-.4,3.59-.79h0c-1.15.39-2.35.65-3.59.79Z"/><path class="cls-3" d="M435.66,391.03l-4.87-8.56c-.27,2.01-.5,4.02-.77,6.03l3.99,7.03c.53-1.51,1.08-3.01,1.65-4.5Z"/><path class="cls-3" d="M511.35,528.41c-.54-1.48-.56-3.05-.15-4.5l-8.92-15.69c-.98.76-1.97,1.5-2.96,2.19l12.04,21.18c.15-1.86.04-2.88,0-3.18Z"/><path class="cls-3" d="M652.53,577.62c-.94.99-1.9,1.97-2.86,2.96l5.05,1.51c.29-1.16.68-2.32,1.16-3.46l-3.35-1Z"/><path class="cls-9" d="M548.47,550.3l52.08,15.58c1.27-.84,2.56-1.72,3.88-2.65l-68.06-20.37-.46,3.68,2.5.75c.75-.31,1.55-.52,2.4-.56.11,0,.35-.01.46-.01,2.68,0,5.09,1.06,6.79,2.97.17.19.28.41.43.61Z"/><path class="cls-3" d="M570.71,411.53c-.31.68-.65,1.37-.96,2.05l18.75,53.08c.93-.59,1.87-1.17,2.77-1.85.12-.09.23-.18.35-.28l-19.69-55.75c-.41.93-.79,1.81-1.21,2.75Z"/><path class="cls-3" d="M537.1,321.14c1.2-.29,2.35-.71,3.44-1.23h0c-1.09.52-2.23.94-3.44,1.23Z"/><path class="cls-3" d="M546.44,347.59c.53-2.19,1.05-4.38,1.55-6.57l-5.02-14.21c-1.13.5-2.28.91-3.44,1.23l6.91,19.56Z"/><path class="cls-3" d="M751.3,375.63c-.06.05-.11.09-.17.14l.53,1.78.43.46-.79-2.38Z"/><path class="cls-3" d="M545.75,292.7h0c.83.9,1.54,1.88,2.17,2.94h0c-.63-1.06-1.34-2.04-2.17-2.94h0Z"/><path class="cls-3" d="M604.49,249.51c-.11-.13-.19-.27-.3-.4l-52.59,39.22c.78.9,1.51,1.88,2.17,2.93l52.95-39.49c-.78-.71-1.54-1.45-2.24-2.27Z"/><path class="cls-3" d="M664.01,564.78c-.79.95-1.59,1.89-2.4,2.83l1.25,1.52c.94-.78,1.95-1.47,3-2.1l-1.85-2.25Z"/><path class="cls-3" d="M499.25,229.85c-.97.76-2,1.41-3.11,1.95h0s0,0,0,0c1.11-.54,2.15-1.2,3.11-1.95Z"/><path class="cls-3" d="M502.46,236.52c-1.02.7-2.06,1.35-3.14,1.87,0,0,0,0-.01,0l21.57,44.79c1.03-.59,2.13-1.12,3.3-1.57l-21.72-45.09Z"/><path class="cls-3" d="M435.64,342.02c-.15,1.37-.3,2.75-.45,4.12l76.02-30.88c-.54-1.09-1-2.22-1.38-3.38l-74.19,30.14Z"/><path class="cls-3" d="M528.3,577.88l6.4,42.67c1.23.03,2.46.06,3.69.09l-6.49-43.36c-1.15.3-2.36.49-3.6.59Z"/><path class="cls-3" d="M321.33,472.44h0c-.78-.96-1.65-1.82-2.61-2.59h0c.96.77,1.83,1.63,2.61,2.59Z"/><path class="cls-3" d="M325.9,466.61l56.85-72.53c.32-2.38.64-4.76.95-7.14l-60.48,77.16s.03.02.05.03c.94.75,1.8,1.59,2.63,2.48Z"/><path class="cls-9" d="M393.25,621.79c.92-.07,1.88-.13,2.78-.21.44-.03.87-.05,1.3-.08l6.58-15.6c-1.17-.42-2.28-.93-3.33-1.5l-7.33,17.39Z"/><path class="cls-3" d="M403.42,597.66c1.04.62,2.15,1.12,3.33,1.52-1.17-.39-2.28-.89-3.33-1.52h0Z"/><path class="cls-9" d="M383.04,655.4c-1.36.1-2.72.17-4.08.27l-21.45,50.88c1.16.38,2.29.84,3.38,1.38l22.15-52.53Z"/><path class="cls-3" d="M358.06,714.66c-1.07-.57-2.2-1.03-3.38-1.37,1.19.34,2.31.8,3.38,1.37h0Z"/><path class="cls-3" d="M324.52,501.35l33.47,31.53c.32-1.38.6-2.77.92-4.15l-31.88-30.03c-.76.93-1.6,1.82-2.51,2.65Z"/><path class="cls-3" d="M319.2,496.34h0c.62-.53,1.14-1.16,1.67-1.77-.54.61-1.05,1.24-1.67,1.77h0Z"/><path class="cls-3" d="M395.14,584.61c.06.57.06,1.17.17,1.72h0c-.11-.56-.12-1.15-.17-1.72Z"/><path class="cls-3" d="M401.85,569.17h0c-.98.74-1.86,1.59-2.66,2.52.8-.93,1.68-1.77,2.66-2.52h0Z"/><path class="cls-3" d="M436.11,668.62c-.75-1-1.39-2.04-1.96-3.09l-65.64,48.31c.78.91,1.5,1.89,2.17,2.95l65.44-48.16Z"/><path class="cls-3" d="M471.47,672.65l51.02,58.1c.45-.68.92-1.36,1.45-2,.26-.33.59-.59.86-.9l-50.73-57.77c-.8.91-1.66,1.78-2.6,2.58Z"/><path class="cls-3" d="M466.66,667.16h0s0,0,0,0c.95-.78,1.8-1.65,2.56-2.62h0c-.76.97-1.62,1.84-2.56,2.62Z"/><path class="cls-3" d="M229,616.04l110.06-19.66c.53-1.32,1.01-2.65,1.52-3.97l-111.96,19.99s0,.01,0,.02c.15.87.32,2.18.38,3.63Z"/><path class="cls-3" d="M221.59,615.19c-.05-.5-.07-1.01-.15-1.51h0c.09.49.1,1,.15,1.51Z"/><path class="cls-9" d="M293.01,502.65l-73.94,94.35c.96.71,1.87,1.53,2.74,2.42l74.27-94.76c-1.04-.58-2.06-1.22-3.03-1.98-.01-.01-.02-.02-.04-.03Z"/><path class="cls-3" d="M216.37,604.38c-.58-.57-1.14-1.16-1.8-1.64h0s0,0,0,0c.66.48,1.22,1.07,1.81,1.64Z"/><path class="cls-3" d="M428.72,578.06h0c-.35-1.19-.81-2.31-1.39-3.37.58,1.07,1.04,2.19,1.39,3.37Z"/><path class="cls-3" d="M509.06,550l.23-1.82-74.96,24.24c.52,1.1.98,2.22,1.33,3.39l73.16-23.64c.06-.7.14-1.41.23-2.17Z"/><path class="cls-9" d="M543.26,719.55l1.55-55.94-1.54-10.31c-1.23-.04-2.46-.07-3.68-.11l1.59,10.64-1.57,55.99c1.14-.16,2.28-.27,3.4-.27h.25Z"/><path class="cls-3" d="M543.06,726.86s-.03,0-.05,0h0s.03,0,.05,0h0Z"/><path class="cls-3" d="M766.74,530.94l-67.89,43.25c.7,1.03,1.29,2.09,1.81,3.18l68.73-43.78-2.65-2.64Z"/><path class="cls-3" d="M694.47,581.31h0c-.47-1.14-1.07-2.2-1.77-3.2.69,1,1.29,2.07,1.77,3.2Z"/><path class="cls-3" d="M645.08,625.99c1.51.12,3.03.23,4.54.34l15.59-17.89c-1.04-.67-2.04-1.39-2.93-2.19l-17.19,19.73Z"/><path class="cls-3" d="M561.21,727.79l62.89-72.17c-1.58-.06-3.14-.09-4.71-.15l-60.8,69.77c.94.78,1.81,1.64,2.62,2.55Z"/><path class="cls-3" d="M556.39,733.33h0c-.77-.96-1.63-1.82-2.59-2.59h0s0,0,0,0c.95.77,1.82,1.63,2.59,2.59Z"/><path class="cls-3" d="M748.16,378.57l10.01,33.81c1.19-.24,2.4-.47,3.6-.7l-10.11-34.13-.53-1.78c-.99.86-1.98,1.8-2.97,2.81Z"/><path class="cls-3" d="M774.07,453.19c-1.21.21-2.41.43-3.61.65l12.29,41.48,2.93-2.96-11.6-39.18Z"/><path class="cls-3" d="M553.02,318.66l11.34,3.14c.6-.04,1.14-.15,1.78-.15,2.77,0,6.37.73,9.9,3.38l153.84,42.57c.38-1.09.82-2.24,1.32-3.43l-176.24-48.77c-.32.62-.61,1.25-.98,1.85-.31.51-.64.94-.97,1.4Z"/><path class="cls-3" d="M545.36,316.54h0c.93-.93,1.71-2,2.4-3.12h0c-.7,1.12-1.47,2.19-2.4,3.12Z"/><path class="cls-3" d="M686.13,603.37c1.11-.55,2.14-1.21,3.1-1.98h0c-.96.76-1.99,1.43-3.1,1.98Z"/><path class="cls-3" d="M689.32,609.94l10.17,20.94c1.43.15,2.85.29,4.28.44l-11.3-23.27c-1,.7-2.03,1.35-3.1,1.87-.01,0-.03.01-.04.02Z"/><path class="cls-3" d="M744.73,382.29c-1.07,1.17-2.22,2.43-3.57,3.4l-10.33,33.48c1.38-.41,2.79-.8,4.19-1.2l11.68-37.86c-.66.71-1.31,1.4-1.97,2.18Z"/><path class="cls-3" d="M687.16,573.07h0c-1.06-.62-2.18-1.11-3.36-1.49h0c1.18.38,2.31.87,3.36,1.49Z"/><path class="cls-3" d="M689.35,566l30.31-98.22c-1.46.57-2.93,1.13-4.36,1.73l-29.34,95.1s.06.01.09.02c1.15.37,2.24.85,3.3,1.37Z"/><path class="cls-3" d="M153.77,430.29h0c-.82-.91-1.71-1.74-2.7-2.45h0s0,0,0,0c.99.72,1.89,1.55,2.71,2.45Z"/><path class="cls-3" d="M158.65,424.85l62.16-69.26c-1.41-.22-2.8-.5-4.17-.83l-60.7,67.63c.94.73,1.84,1.55,2.71,2.45Z"/><path class="cls-9" d="M235.09,327.3c.3.13.58.28.89.41.86.41,1.61.86,2.36,1.3l71.8-178.13c-1.16-.37-2.29-.83-3.39-1.37l-71.66,177.79Z"/><path class="cls-3" d="M157.15,447.7h0c.41-1.13.7-2.32.87-3.55h0c-.17,1.23-.45,2.42-.87,3.55Z"/><path class="cls-3" d="M283.9,479.19c.21-1.23.5-2.42.87-3.55l-119.66-29.73c-.21,1.23-.5,2.42-.87,3.55l119.66,29.73Z"/><path class="cls-3" d="M324.01,151.17c-1.17.32-2.37.55-3.58.69l13.37,68.76c1.12-.35,2.29-.65,3.56-.86l-13.34-68.6Z"/><path class="cls-3" d="M239.98,352.53c-1.06.64-2.14,1.2-3.25,1.67,20.35,35.25,46.04,80.86,59.76,107.49,1.05-.56,2.17-1.03,3.3-1.44-16.39-32.09-48.24-87.67-59.81-107.73Z"/><path class="cls-9" d="M510.34,539.96l-100.47-29.08c-.24,1.2-.5,2.39-.75,3.59l100.76,29.16.47-3.67Z"/><path class="cls-9" d="M364.71,501.61c.24-1.2.47-2.4.71-3.6l-33.43-9.68c-.25,1.23-.59,2.4-1,3.51l33.72,9.76Z"/><path class="cls-3" d="M323.98,489.82h0c.46-1.12.78-2.3.99-3.52h0c-.22,1.22-.54,2.4-.99,3.52Z"/><path class="cls-3" d="M145.05,458.53c1.2-.29,2.35-.72,3.44-1.25,1-.49,1.95-1.06,2.83-1.72,2.64-1.98,4.68-4.69,5.83-7.86.41-1.13.7-2.32.87-3.55.11-.77.24-1.54.24-2.35,0-3.33-.97-6.42-2.62-9.04-.55-.88-1.17-1.7-1.86-2.46-.82-.91-1.71-1.74-2.71-2.45-1.35-.98-2.85-1.73-4.46-2.28-.76-.26-1.57-.39-2.38-.54-.4-.08-.78-.22-1.19-.27-.68-.08-1.35-.21-2.05-.21-2.38,0-4.65.48-6.72,1.36-2.07.87-3.92,2.14-5.49,3.7-3.12,3.12-5.06,7.44-5.06,12.21s1.93,9.08,5.06,12.21c1.56,1.56,3.42,2.83,5.49,3.7,2.06.87,4.33,1.36,6.72,1.36,1.17,0,2.3-.17,3.4-.4.22-.05.45-.08.67-.13Z"/><path class="cls-3" d="M221.67,617.35c0-.22.07-.43.07-.66,0-.52-.1-1-.15-1.51-.05-.5-.07-1.01-.15-1.51-.14-.81-.34-1.6-.6-2.36-.76-2.29-1.99-4.36-3.57-6.12-.27-.3-.61-.54-.9-.82-.58-.57-1.14-1.16-1.81-1.64-.71-.51-1.46-.98-2.24-1.39-1.57-.81-3.27-1.4-5.07-1.69-.9-.15-1.82-.23-2.77-.23-.82,0-1.61.07-2.39.2-.78.13-1.54.31-2.28.52-1.19.34-2.32.79-3.39,1.37-4.77,2.54-8.23,7.2-9.03,12.75-.11.79-.17,1.6-.17,2.43,0,5.96,3.02,11.21,7.61,14.31,2.75,1.86,6.08,2.95,9.65,2.95,1.09,0,2.16-.11,3.19-.3,2.07-.4,3.99-1.17,5.73-2.24.87-.53,1.68-1.14,2.44-1.81.92-.81,1.76-1.7,2.49-2.69,1.99-2.7,3.2-5.97,3.34-9.55Z"/><path class="cls-3" d="M367.22,729.81c0-3.19-.93-6.15-2.44-8.71-.62-1.06-1.34-2.05-2.17-2.95-.22-.24-.48-.42-.71-.65-1.15-1.11-2.42-2.09-3.85-2.85-1.07-.57-2.2-1.03-3.38-1.37-1.51-.43-3.07-.73-4.71-.73-3.79,0-7.26,1.24-10.1,3.32-.94.69-1.82,1.48-2.61,2.34-.41.45-.72.98-1.08,1.48-.36.49-.77.95-1.08,1.48-1.49,2.55-2.4,5.48-2.4,8.65,0,9.53,7.73,17.26,17.26,17.26,1.85,0,3.63-.29,5.3-.83,3.33-1.08,6.21-3.16,8.31-5.88,1.05-1.36,1.9-2.88,2.51-4.52.43-1.15.72-2.35.9-3.59.12-.8.25-1.6.25-2.44Z"/><path class="cls-3" d="M529.62,733.33c-.8.99-1.49,2.05-2.05,3.2-1.13,2.3-1.83,4.85-1.83,7.58,0,.5.11.97.15,1.45.11,1.29.35,2.53.73,3.73,2.21,6.98,8.67,12.08,16.38,12.08,9.53,0,17.26-7.73,17.26-17.26,0-1.24-.14-2.45-.39-3.62-.26-1.23-.68-2.39-1.18-3.51-.6-1.33-1.4-2.53-2.3-3.66-.77-.95-1.63-1.82-2.59-2.59-2.95-2.39-6.65-3.87-10.74-3.89-.02,0-.03,0-.05,0-1.24,0-2.44.14-3.6.39-3.94.84-7.33,3.06-9.78,6.09Z"/><path class="cls-3" d="M778.46,300.15c-2.08,2.3-3.58,5.13-4.2,8.29-.21,1.05-.31,2.14-.31,3.25s.12,2.31.34,3.41c.67,3.3,2.28,6.26,4.54,8.59,3.88.92,8.11,2.65,12.76,5.23,8.18-.18,14.96-6.03,16.53-13.79.22-1.11.34-2.26.34-3.43,0-3.57-1.09-6.9-2.95-9.65-3.1-4.59-8.35-7.61-14.31-7.61-3.75,0-7.19,1.23-10.03,3.26-1,.72-1.9,1.55-2.72,2.46Z"/><path class="cls-3" d="M685.77,173.13c1.12-.52,2.16-1.17,3.13-1.9,4.16-3.15,6.89-8.1,6.89-13.72,0-9.53-7.73-17.26-17.26-17.26-6.97,0-12.94,4.15-15.66,10.1-.5,1.1-.91,2.25-1.18,3.46-.26,1.2-.42,2.43-.42,3.7,0,5.27,2.41,9.92,6.13,13.09.93.79,1.94,1.48,3.02,2.06,2.43,1.31,5.17,2.12,8.12,2.12.66,0,1.28-.12,1.92-.19,1.24-.14,2.44-.4,3.59-.79.59-.2,1.17-.4,1.73-.66Z"/><path class="cls-3" d="M481.34,97.2c0,2.76.71,5.34,1.87,7.66.56,1.12,1.24,2.16,2.02,3.12,1.89,2.34,4.35,4.19,7.18,5.3.95.37,1.93.66,2.96.85,1.05.2,2.13.33,3.24.33.14,0,.26-.04.4-.04,8.12-.19,14.85-5.97,16.47-13.65.23-1.1.36-2.23.37-3.4,0-.06.02-.11.02-.17,0-1.36-.19-2.66-.49-3.93-1.79-7.63-8.59-13.33-16.77-13.33-3.85,0-7.39,1.27-10.25,3.41-2.85,2.14-5.02,5.16-6.13,8.64-.4,1.24-.65,2.54-.75,3.88-.03.44-.13.87-.13,1.32Z"/><path class="cls-3" d="M327.99,254.75c.38.48.71.99,1.15,1.42,2.34,2.32,5.34,3.98,8.69,4.67,1.12.23,2.28.35,3.46.35.64,0,1.27-.04,1.89-.11,1.24-.14,2.44-.42,3.59-.82.57-.2,1.14-.42,1.68-.67,1.12-.51,2.16-1.15,3.13-1.88,4.2-3.15,6.96-8.12,6.96-13.78,0-.63-.12-1.24-.19-1.85-.09-.82-.31-1.6-.51-2.38-.1-.39-.13-.81-.26-1.19-.37-1.1-.84-2.15-1.4-3.14-.56-.99-1.23-1.91-1.97-2.76-.81-.92-1.69-1.76-2.68-2.49-2.87-2.14-6.4-3.45-10.25-3.45-.87,0-1.71.13-2.55.26-1.23.18-2.42.48-3.55.91-4.07,1.54-7.41,4.56-9.35,8.41-1.16,2.31-1.81,4.92-1.81,7.68,0,.87.07,1.72.19,2.55.25,1.66.74,3.25,1.44,4.72.35.74.74,1.45,1.18,2.12.34.51.77.95,1.15,1.42Z"/><path class="cls-3" d="M290.99,480.95c-.11.77-.24,1.54-.24,2.35,0,4.17,1.51,7.97,3.98,10.94.82.99,1.76,1.89,2.78,2.68.97.75,2.01,1.4,3.12,1.94,2.24,1.07,4.73,1.71,7.38,1.71,1.07,0,2.12-.1,3.13-.29,3.04-.58,5.79-1.98,8.05-3.92.62-.53,1.14-1.16,1.67-1.77.27-.3.59-.56.84-.88.23-.3.42-.62.63-.93.63-.93,1.21-1.89,1.64-2.94.46-1.12.78-2.3.99-3.52.17-.98.3-1.98.3-3.01s-.09-2.04-.27-3.02c-.54-2.94-1.85-5.6-3.67-7.83-.78-.96-1.65-1.82-2.61-2.59-.74-.59-1.52-1.12-2.35-1.59-1.65-.94-3.46-1.61-5.39-1.96-.96-.17-1.96-.27-2.97-.27-1.72,0-3.35.33-4.92.8-1.16.35-2.25.8-3.3,1.37-.91.5-1.78,1.08-2.58,1.72-1.61,1.29-2.97,2.86-4.02,4.65-.53.89-.98,1.84-1.34,2.83-.41,1.13-.7,2.32-.87,3.55Z"/><path class="cls-3" d="M427.33,574.68c-.37-.67-.77-1.32-1.22-1.93-2.23-3.08-5.44-5.39-9.17-6.47-.75-.21-1.52-.38-2.3-.49-.79-.11-1.59-.17-2.41-.17-.98,0-1.94.08-2.87.25-.93.16-1.84.4-2.71.71-1.74.61-3.36,1.5-4.81,2.6-.98.74-1.86,1.59-2.66,2.52-1.92,2.23-3.29,4.93-3.88,7.92-.2,1-.3,2.03-.32,3.08,0,.07-.02.13-.02.19,0,.59.12,1.15.17,1.72.06.57.06,1.17.17,1.72.25,1.21.62,2.37,1.1,3.46.73,1.65,1.78,3.09,2.96,4.42,1.18,1.32,2.5,2.53,4.04,3.45,1.04.62,2.15,1.12,3.33,1.52.87.29,1.75.53,2.67.7.91.17,1.85.27,2.81.27.73,0,1.46-.05,2.16-.15.71-.1,1.4-.24,2.07-.42,1.35-.36,2.64-.89,3.85-1.53,1.09-.58,2.09-1.26,3.03-2.06.47-.4.91-.81,1.33-1.26.85-.88,1.6-1.85,2.25-2.89.65-1.04,1.19-2.16,1.6-3.33.41-1.17.7-2.41.85-3.68.07-.64.11-1.29.11-1.95,0-.84-.08-1.66-.21-2.47-.14-.8-.33-1.59-.55-2.36-.35-1.19-.81-2.31-1.39-3.37Z"/><path class="cls-3" d="M469.22,664.54c2.31-2.94,3.75-6.59,3.75-10.62,0-.74-.13-1.44-.22-2.16-11.01.03-22.14.21-33.14.57-.33.01-.67.03-1.01.05-.05.52-.16,1.01-.16,1.54,0,.65.04,1.29.11,1.91.22,1.88.76,3.66,1.52,5.32.52,1.12,1.17,2.16,1.9,3.14,3.15,4.16,8.1,6.89,13.72,6.89,4.18,0,7.96-1.55,10.95-4.02.95-.78,1.8-1.65,2.56-2.62Z"/><path class="cls-3" d="M695.79,587.94c0-2.35-.48-4.58-1.33-6.63-.47-1.14-1.07-2.2-1.77-3.2-1.44-2.07-3.35-3.76-5.53-5.04-1.06-.62-2.18-1.11-3.36-1.49-1.67-.54-3.42-.91-5.27-.91-2.9,0-5.6.78-8,2.05-1.09.58-2.11,1.26-3.05,2.05-1.93,1.62-3.52,3.63-4.59,5.94-.51,1.1-.92,2.25-1.19,3.46-.27,1.21-.44,2.47-.44,3.76,0,5.11,2.27,9.66,5.8,12.82.91.82,1.91,1.52,2.98,2.13,2.51,1.43,5.38,2.31,8.47,2.31,2.74,0,5.29-.7,7.59-1.83,1.11-.55,2.14-1.21,3.1-1.98,3.97-3.16,6.56-7.98,6.56-13.45Z"/><path class="cls-3" d="M633.19,219.63c-2.84-2.07-6.32-3.32-10.1-3.32-9.24,0-16.73,7.28-17.18,16.42-.01.29-.09.55-.09.84,0,.99.13,1.95.29,2.89.53,3.15,1.93,5.97,3.92,8.29.81.94,1.7,1.8,2.69,2.55,2.17,1.64,4.71,2.81,7.5,3.29.93.16,1.88.24,2.86.24,2.97,0,5.71-.82,8.15-2.13,1.09-.59,2.11-1.29,3.04-2.09,2.76-2.37,4.79-5.57,5.63-9.24.28-1.22.43-2.49.43-3.8,0-1.1-.11-2.18-.31-3.23-.61-3.13-2.08-5.94-4.13-8.23-.82-.92-1.72-1.76-2.72-2.48Z"/><path class="cls-3" d="M499.25,229.85c.74-.58,1.44-1.22,2.08-1.92,1.92-2.08,3.33-4.62,4.03-7.46.29-1.17.47-2.37.51-3.62,0-.19.06-.36.06-.56,0-8.41-6.02-15.4-13.99-16.93-1.06-.2-2.15-.33-3.27-.33-.13,0-.24.03-.37.04-9.36.2-16.89,7.82-16.89,17.22,0,.55.11,1.07.16,1.6.12,1.24.35,2.43.72,3.58,2.21,6.98,8.67,12.08,16.38,12.08,2.69,0,5.2-.67,7.47-1.76,1.11-.54,2.15-1.2,3.11-1.95Z"/><path class="cls-3" d="M329.58,139.9c1.29-1.25,2.39-2.69,3.24-4.28.85-1.59,1.46-3.34,1.77-5.19.16-.92.24-1.87.24-2.85,0-.56-.11-1.09-.16-1.64-.12-1.24-.36-2.43-.73-3.58-2.22-6.96-8.67-12.04-16.37-12.04-9.53,0-17.26,7.73-17.26,17.26,0,3.02.81,5.84,2.19,8.3.46.82.98,1.6,1.56,2.33.51.64,1.11,1.18,1.7,1.74.29.28.54.61.85.87.89.74,1.84,1.38,2.87,1.93,1.07.57,2.2,1.03,3.39,1.37,1.5.43,3.06.73,4.69.73.5,0,.98-.11,1.47-.15,1.24-.11,2.43-.34,3.59-.69.88-.27,1.73-.61,2.55-1.01,1.63-.8,3.12-1.85,4.41-3.09Z"/><path class="cls-3" d="M545.36,316.54c.93-.93,1.71-2,2.4-3.12,1.63-2.63,2.61-5.71,2.61-9.03s-.93-6.18-2.46-8.76c-.63-1.06-1.34-2.04-2.17-2.94-3.15-3.4-7.62-5.57-12.63-5.57-2.04,0-3.96.42-5.77,1.06-1.16.41-2.27.93-3.3,1.57-4.9,3.05-8.19,8.43-8.19,14.63,0,1.66.31,3.23.74,4.74.34,1.19.8,2.31,1.38,3.38,2.91,5.41,8.56,9.14,15.14,9.14,1.38,0,2.7-.2,3.98-.51,1.2-.29,2.35-.71,3.44-1.23,1.79-.86,3.44-1.97,4.83-3.37Z"/><path class="cls-2" d="M723.87,642.45c-4.8-1.49-9.7-2.57-14.74-3.24-69.69-7.58-139.63-11.54-209.82-11.86h-22c-17.65-.25-35.08-.25-52.33,0-9.4.32-18.83.83-28.32,1.51-6.61.58-13.3.97-20.06,1.22-7.58.47-9.88-2.57-6.9-9.13,8.57-20.32,15.78-41.08,21.64-62.25,6.07-23.43,11.23-46.97,15.45-70.59,4.2-23.61,8.09-47.39,11.64-71.3,6.07-38.33,10.64-76.73,13.66-115.22,3.02-38.53,4.24-77.16,3.67-115.94-.68-25.63-2.91-51.04-6.68-76.19-2.07-12.36-5.09-24.4-9.06-36.16-4.6-12.17-11.18-21.08-19.69-26.74-8.48-5.64-19.44-8.48-32.85-8.48-11.07,0-21.76,1.73-32.06,5.18-10.31,3.41-20.27,7.87-29.9,13.37-29.38,16.82-54.34,37.45-74.9,61.89-20.52,24.4-36.78,52.33-48.81,83.81-7.3,18.65-11.7,37.79-13.23,57.43-1.01,15.15.68,29.18,5.1,42.12,4.4,12.9,12.38,24.49,23.94,34.79,7.76,7.1,16.96,11.14,27.6,12.15,4.46.48,8.57-.65,12.36-3.38,1.24-1.04,2.01-2.32,2.3-3.81.29-1.47-.07-2.62-1.08-3.45-.25-.18-.65-.4-1.22-.65-1.26-1.24-2.73-2.26-4.46-3.09-11.32-4.78-19.69-11.59-25.16-20.41-5.43-8.8-8.98-18.99-10.71-30.55-2.07-14.52-1.33-28.99,2.23-43.42,7.8-33.15,20.7-62.84,38.67-89.06,18.01-26.2,40.76-49.09,68.21-68.65,14.32-10.39,29.94-18.22,46.87-23.5,8.48-2.73,15.31-2.95,20.49-.65,5.21,2.26,9.72,7.3,13.51,15.1,3.97,8.59,6.7,17.61,8.19,27.1,4.26,23.2,6.94,46.43,8.05,69.72,1.15,23.29,1.22,46.61.22,69.94-3.79,91.4-14.95,181.86-33.5,271.42-3.56,17.2-7.58,34.18-12.08,50.96-4.51,16.82-10.42,33.3-17.75,49.45-1.01,2.48-1.92,4.67-2.73,6.54-2.16,5.46-4.13,9.43-5.89,11.93-1.78,2.53-4.24,4.31-7.4,5.32-3.16,1.04-8.18,2.03-15.02,2.95-.92.38-1.99.57-3.23.57-14.43,2.73-28.68,5.98-42.77,9.78-11.55,2.48-22.25,6.99-32.06,13.51-8.01,6.27-11.79,12.54-11.36,18.83.47,6.33,5.12,12,13.94,17.04,5.36,2.97,10.89,4.85,16.6,5.68,16.14,2.3,31.23,1.29,45.28-3.02,14.09-4.28,26.78-12.58,38.1-24.94.58-.49,1.22-1.11,1.94-1.87,4.11-4.03,7.65-8.45,10.64-13.23,4.55-7.58,11.07-11.48,19.55-11.72,1.24,0,2.48-.11,3.74-.29,1.82-.25,3.49-.36,5.03-.36,19.1-1.45,38.15-2.5,57.15-3.25v-.07s6.45-.23,6.45-.23l.39-.02.63-.03c.44-.01.9-.02,1.34-.03,11.26-.36,22.5-.54,33.73-.55h4.74s0,.02,0,.02c8.2.03,16.4.13,24.58.35,15.42.47,30.8.93,46.15,1.37,13.84.38,27.69.79,41.55,1.22h4.1c19.64.47,39.34,1.26,59.09,2.37,19.73,1.15,39.46,3.27,59.16,6.4,2.97.43,5.82.54,8.55.36,2.3-.25,4.19-.9,5.68-1.94,1.47-1.01,2.23-2.37,2.23-4.1.32-2.07-.14-3.79-1.44-5.18-1.26-1.35-2.91-2.3-4.96-2.88ZM307.18,664.01c-.72,1.29-1.56,2.52-2.52,3.67-.92,1.15-1.47,1.81-1.65,2.01-3.56,3.77-8.41,7.42-14.59,10.93-6.18,3.49-12.49,5.7-18.9,6.61-6.43.9-11.63-1.04-15.6-5.82-1.06-1.26-1.33-2.52-.79-3.81.52-1.26,2.03-2.5,4.53-3.74,14.9-7.58,30.64-12.22,47.23-13.95,1.73-.34,2.73-.05,3.02.86.29.9.04,1.98-.72,3.23Z"/><path class="cls-5" d="M440.71,645c-.44.01-.91.02-1.34.03l-.63.03-.39.02-6.44.23v.07c2.48-.1,4.98-.25,7.46-.34.45-.01.9-.02,1.34-.03Z"/><path class="cls-6" d="M474.44,644.45c1.58,0,3.17.01,4.75.02v-.03s-4.75.01-4.75.01Z"/><polygon class="cls-4" points="815.08 521.24 791.14 497.23 767.35 521.24 791.14 544.96 815.08 521.24"/><path class="cls-7" d="M777.15,330.8c3.22.76,6.89,2.28,10.91,4.51l.59.33c-4.66-2.65-8.8-4.34-12.39-5.04l.89.21Z"/><path class="cls-8" d="M542.98,556.32c-.7,4.91-6.92,13.95-15.81,14.34-6.34.29-10.94-3.63-11.27-10.98-.09-1.83-.05-5.07.41-8.77l2.18-17.13c.74-5.82-.27-7.89-.27-7.89,0,0,1.33-.9,4.73-1.06,7.08-.32,8.03,2.32,7.23,8.79l-2.64,20.92c-.67,5.55,1.02,8.05,4.31,7.91,3.13-.14,7.13-3.36,9.29-8.43,1.19-.05,2.05.63,1.85,2.3ZM1156.86,339.36c0,3.16-.36,5.45-1.08,6.83h-81.65c8.09,5.28,12.15,19.34,12.15,42.19l-2.16,229.23c0,23.2,1.76,37.43,5.32,42.7-2.84,1.44-5.82,2.16-8.99,2.16-16.16,0-24.22-13.33-24.22-40.04s.32-66.81,1.01-120.26h-115.94c-3.5,31.63-12.11,47.44-25.8,47.44-10.93,0-21.4-5.34-31.41-16.03-10.03-10.73-15.02-21.2-15.02-31.41,0-17.92,15.27-26.88,45.86-26.88.72-16.86,1.08-29.33,1.08-37.38,0-56.21-2.28-86.78-6.83-91.72h-64.33c-18.98,0-28.47-6.68-28.47-20.05,0-3.16.36-5.43,1.08-6.83h310.95c18.98,0,28.46,6.68,28.46,20.05ZM1058.31,389.39c0-23.52-1.76-37.92-5.25-43.2h-122.84c5.27,3.5,8.77,12.11,10.49,25.8,1.76,13.71,2.66,32.62,2.66,56.71s-.18,39.59-.5,46.58c49.54.72,87.86,2.3,114.94,4.74l.5-90.64ZM788.06,335.31l.59.33c9.28,5.27,20.67,14.35,34.21,27.31,8.84,8.51,16.77,15.67,23.71,21.59,6.94,5.88,12.86,10.59,17.75,14.1,10.81,7.38,23.05,13.41,36.67,18.08v28.78c-1.57-1.1-7.45-2.26-17.68-3.54-5.88-.66-11.47-1.17-16.84-1.5-5.33-.4-10.56-.58-15.74-.58-12.93,0-25.83.47-38.68,1.35-12.82.95-25.5,2.45-37.95,4.53-12.42,2.08-24.47,4.79-36.13,8.15-11.73,3.29-22.76,7.42-33.17,12.27-2.15.99-3.98,1.75-5.51,2.34-3.18,37.92-22.03,74.19-56.62,108.81-8.04,7.89-16.22,11.83-24.44,11.83-25.28,0-37.88-1.24-37.88-3.73,0-1.1,2.96-2.85,8.91-5.26,16.14-6.36,35.58-22.03,58.37-47.01,22.79-24.91,34.19-43.07,34.19-54.46v-8.99c-8.47,1.94-20.82,2.92-37.07,2.92s-26.67-2.19-32.77-6.54c-.4-.29-.77-.62-1.13-.95v1.17c0,10.23-2.34,18.81-7.05,25.75-4.71,6.94-10.23,12.27-16.58,15.96-6.39,3.65-12.42,5.52-18.04,5.52-6.54,0-13.26-4.38-20.2-13.15-6.98-8.8-11.43-22.32-13.44-40.47-9.94,14.76-20.64,27.4-32.14,37.88-11.47,10.48-22.83,15.74-34.15,15.74-7.09,0-13.48-2.92-19.18-8.69-5.66-5.84-10.19-13.52-13.59-23.01-3.43-9.46-5.11-19.61-5.11-30.39s1.13-20.71,3.4-31.49c2.3-10.78,5.48-21.15,9.53-31.05,4.13-9.94,8.95-18.85,14.46-26.74,5.55-7.96,11.58-14.17,18.12-18.7,6.5-4.53,13.3-6.83,20.42-6.83,9.9,0,17.75,5.41,23.56,16.18,5.84,10.74,11.47,26.15,16.84,46.28.29.88.55,1.32.84,1.32s.59-.44.88-1.32c3.1-9.61,6.06-19.47,8.91-29.55,2.81-10.04,5.37-20.16,7.63-30.39.84-3.4,1.86-5.92,2.99-7.63,1.17-1.72,3.54-2.56,7.2-2.56,3.4,0,6.28,1.75,8.69,5.3,2.45,3.58,4.27,7.34,5.55,11.29,1.28,3.98,1.94,6.98,1.94,8.91,0,4.27-1.64,11.21-4.9,20.86-3.29,9.64-7.74,20.71-13.37,33.2-5.66,12.46-12.2,24.91-19.54,37.37,3.95,11.65,8.62,19.98,13.99,24.95,5.37,4.93,10.88,7.42,16.62,7.42,3.91,0,7.6-.69,10.99-2.08,3.4-1.46,6.58-3.29,9.57-5.55,3-2.3,5.33-4.46,7.05-6.47,1.13-1.39,2.01-2.45,2.56-3.14.44-.51.91-.77,1.43-.95-2.56-4.57-3.87-10.74-3.87-18.56,0-18.7,6.17-36.86,18.52-54.39,11.83-16.69,23.3-25.02,34.44-25.02,10.52,0,20.46,9.53,29.77,28.6,7.09,14.68,11.54,30.76,13.33,48.22,8-3.65,16.25-6.98,24.8-9.83,10.74-3.62,22.1-6.72,34.15-9.2,12.02-2.52,24.77-4.49,38.24-5.88,13.52-1.39,27.83-2.26,42.95-2.67-.84-.44-2.59-1.75-5.22-3.94-2.92-2.26-6.83-5.41-11.65-9.42-11.14-8.91-19.25-16-24.44-21.3-10.56-10.52-20.53-15.82-29.99-15.82s-19.11,5.59-28.6,16.69c-1.53,1.68-2.48,2.52-2.89,2.52-.84,0-1.28-.69-1.28-2.08,0-4.89,3.32-13.3,9.97-25.24,8.51-15.05,17.68-22.57,27.54-22.57,1.17,0,2.42.15,3.74.41l.89.21c3.22.76,6.89,2.28,10.91,4.51ZM533.01,416.56c-6.25-16.69-11.43-28.53-15.52-35.5-4.13-6.94-9.61-10.41-16.4-10.41-5.95,0-11.98,2.56-18.04,7.71-6.1,5.08-11.76,11.94-17.02,20.6-5.22,8.62-9.5,18.12-12.75,28.49-3.25,10.34-4.86,20.75-4.86,31.27,0,9.61,1.61,17.93,4.86,24.87,3.25,6.94,7.16,10.41,11.65,10.41,11.07,0,21.59-5.04,31.49-15.09,9.93-10.08,18.85-23.34,26.81-39.85,1.68-3.4,3.36-6.98,5.04-10.78,1.72-3.84,3.29-7.71,4.75-11.73ZM678.54,440.3c0-8.77-2.78-18.85-8.33-30.28-6.47-12.86-13.22-19.32-20.27-19.32-7.63,0-15.23,4.24-22.79,12.64-7.6,8.4-11.36,16.95-11.36,25.68s9.64,12.93,28.97,12.93c14.83,0,26.12-.55,33.79-1.64ZM852.89,645.84c0,1.34-.41,2.42-1.24,3.24-.83.83-1.98,1.24-3.48,1.24-1.34,0-2.4-.31-3.18-.94-.79-.63-1.41-1.41-1.89-2.36l-23.23-50.81c-1.65-4.56-3.91-8.15-6.78-10.79-2.87-2.63-7.06-3.95-12.56-3.95-6.21,0-10.8,1.59-13.79,4.77-2.99,3.18-4.48,7.37-4.48,12.56v63.66h13.91v-62.96c0-1.41.41-2.53,1.24-3.36.82-.83,2.02-1.24,3.6-1.24,2.28,0,3.93,1.14,4.95,3.42l23.23,50.81c.78,2.28,1.73,4.32,2.83,6.13,1.1,1.81,2.42,3.36,3.95,4.66,1.53,1.3,3.34,2.28,5.43,2.95,2.08.67,4.5,1,7.25,1,6.13,0,10.71-1.59,13.74-4.77,3.02-3.18,4.54-7.41,4.54-12.67v-63.55h-14.03v62.96ZM906.12,647.49c-2.08-.71-3.76-1.67-5.01-2.89-1.26-1.22-2.14-2.67-2.65-4.36-.51-1.69-.77-3.48-.77-5.36v-51.99h-13.91v52.11c0,4.01.53,7.68,1.59,11.02,1.06,3.34,2.77,6.23,5.13,8.67,2.36,2.44,5.4,4.34,9.14,5.72,3.73,1.38,8.23,2.06,13.5,2.06h31.71v-13.91h-30.89c-3.14,0-5.76-.35-7.84-1.06ZM1018,590.02c-2.08-2.16-4.74-3.89-7.96-5.19-3.22-1.3-7.07-1.95-11.55-1.95h-40.8v13.91h41.38c3.77,0,6.54,1.04,8.31,3.12,1.77,2.08,2.65,4.58,2.65,7.49,0,1.41-.22,2.77-.65,4.07-.43,1.3-1.08,2.46-1.94,3.48-.87,1.02-2,1.85-3.42,2.48-1.41.63-3.11.94-5.07.94h-28.65c-4.4,0-7.59.98-9.55,2.95-1.97,1.96-2.95,5.19-2.95,9.67v31.48h13.91v-28.77c0-1.33.67-2,2-2h24.76c4.64,0,8.59-.74,11.85-2.24,3.26-1.49,5.91-3.42,7.96-5.78,2.04-2.36,3.52-5.03,4.42-8.02.9-2.99,1.36-5.97,1.36-8.96,0-3.14-.49-6.17-1.47-9.08-.98-2.91-2.52-5.44-4.6-7.61Z"/></svg>